<?xml version="1.0" encoding="UTF-8"?>
<svg width="16" height="16" viewBox="0 0 16 16" xmlns="http://www.w3.org/2000/svg">

  <defs>
    <linearGradient id="grad" x1="0%" y1="0%" x2="100%" y2="100%">
      <stop offset="0%" stop-color="#2DE1FF"/>
      <stop offset="100%" stop-color="#8A7DFF"/>
    </linearGradient>
    <style>
      .o { fill: none; stroke: url(#grad); stroke-width: 1.4; stroke-linecap: round; stroke-linejoin: round; }
      .f { fill: url(#grad); }
      .w { stroke: #ffffff; }
      .a { fill: rgba(255,255,255,0.10); }
    </style>
  </defs>

<!-- left lobe -->
<path d="M6 3.5 C4.8 3.5 4 4.5 4 5.6 C3.2 5.9 2.7 6.7 2.9 7.6 C3 8.6 3.8 9.3 4.8 9.3 H6 V6.1 C6 5.2 6.7 4.5 7.6 4.5" class="o"/>
<!-- right lobe -->
<path d="M10 3.5 C11.2 3.5 12 4.5 12 5.6 C12.8 5.9 13.3 6.7 13.1 7.6 C13 8.6 12.2 9.3 11.2 9.3 H10 V6.1 C10 5.2 9.3 4.5 8.4 4.5" class="o"/>
<!-- stem + small nodes -->
<path d="M8 5.2 V12" class="o"/>
<circle cx="8" cy="12.4" r="0.9" class="f"/>
<circle cx="6.2" cy="7.3" r="0.7" class="f"/>
<circle cx="9.8" cy="7.3" r="0.7" class="f"/>
</svg>
