<?xml version="1.0" encoding="UTF-8"?>
<svg width="48" height="48" viewBox="0 0 48 48" xmlns="http://www.w3.org/2000/svg">

  <defs>
    <linearGradient id="grad" x1="0%" y1="0%" x2="100%" y2="100%">
      <stop offset="0%" stop-color="#2DE1FF"/>
      <stop offset="100%" stop-color="#8A7DFF"/>
    </linearGradient>
    <filter id="glow" x="-50%" y="-50%" width="200%" height="200%">
      <feGaussianBlur stdDeviation="1.2" result="b"/>
      <feMerge>
        <feMergeNode in="b"/>
        <feMergeNode in="SourceGraphic"/>
      </feMerge>
    </filter>
    <style>
      .o { fill: none; stroke: url(#grad); stroke-width: 2; stroke-linecap: round; stroke-linejoin: round; }
      .f { fill: url(#grad); }
      .w { stroke: #FFFFFF; }
      .a { fill: rgba(255,255,255,0.06); }
    </style>
  </defs>

<rect x="2" y="2" width="44" height="44" rx="10" class="a" />
<!-- chip body -->
<rect x="12" y="12" width="24" height="24" rx="4" class="o" filter="url(#glow)"/>
<rect x="18" y="18" width="12" height="12" rx="2" class="f"/>
<!-- pins -->
<path d="M16 8 V12" class="o"/>
<path d="M24 8 V12" class="o"/>
<path d="M32 8 V12" class="o"/>
<path d="M16 36 V40" class="o"/>
<path d="M24 36 V40" class="o"/>
<path d="M32 36 V40" class="o"/>
<path d="M8 16 H12" class="o"/>
<path d="M8 24 H12" class="o"/>
<path d="M8 32 H12" class="o"/>
<path d="M36 16 H40" class="o"/>
<path d="M36 24 H40" class="o"/>
<path d="M36 32 H40" class="o"/>
</svg>
